# xmcd
#
# Track frame offsets:
#	150
#	14892
#	25975
#	37451
#	50995
#	63441
#	78217
#	91605
#	104555
#	117328
#	130604
#	143335
#	157098
#	171694
#	182794
#	195218
#	208541
#	221815
#	235552
#	246202
#	260678
#	274328
#	289327
#	302029
#	315780
#	329896
#
# Disc length: 4571 seconds
#
# Revision: 1
# Processed by: cddbd v1.5.2PL0 Copyright (c) Steve Scherf et al.
# Submitted via: audiograbber 1.83.01
#
DISCID=8e11d91a
DTITLE=Various Artist - Battle of Clarinets CD1
DYEAR=2005
DGENRE=Vocal
TTITLE0=Lawrence Shields - Ostrich Walk
TTITLE1=Leon Rappolo - Tiger Rag
TTITLE2=Johnny Dodds - Canal Street Blues
TTITLE3=Sidney Arodin - Tin Roof Blues
TTITLE4=Buster Bailey - Santa Claus Blues
TTITLE5=Jimmy Lytell - Meanest Blues
TTITLE6=Pee Wee Russell - None of my Jelly Roll
TTITLE7=Vance Dixon - Crazy Quilt
TTITLE8=Buster Bailey - Sensation
TTITLE9=Johnny Dodds - San
TTITLE10=Benny Goodman - That´s a Plenty
TTITLE11=Pee Wee Russell - Riverboat Shuffle
TTITLE12=Johnny Dodds - Blue Clarinet Stomp
TTITLE13=Benny Goodman - Clarinetitis
TTITLE14=Pee Wee Russell - Original Dixieland One-Stop
TTITLE15=Jimmy Dorsey - The darktown Strutter´s Ball
TTITLE16=Buster Bailey - Kentucky
TTITLE17=Mezz Mezzrow - Swingin´with Mezz
TTITLE18=Jimmy Noone - You Rascal, You
TTITLE19=Sidney Bechet - I´ve found a new Baby
TTITLE20=Buster Bailey - Wild Party
TTITLE21=Pee Wee Russell - Apologies
TTITLE22=Sidney Bechet - Sweetie Dear
TTITLE23=Pee Wee Russell - Oh! Pedter
TTITLE24=Johnny Dodds - Indigo Stomp
TTITLE25=Sidney Bechet - Maple Leaf Rag
EXTD=
EXTT0=
EXTT1=
EXTT2=
EXTT3=
EXTT4=
EXTT5=
EXTT6=
EXTT7=
EXTT8=
EXTT9=
EXTT10=
EXTT11=
EXTT12=
EXTT13=
EXTT14=
EXTT15=
EXTT16=
EXTT17=
EXTT18=
EXTT19=
EXTT20=
EXTT21=
EXTT22=
EXTT23=
EXTT24=
EXTT25=
PLAYORDER=
